<?xml version="1.0" encoding="utf-8"?>
<svg viewBox="0 0 30 30" style="enable-background:new 0 0 30 30;" xmlns="http://www.w3.org/2000/svg">
  <path d="M 0.422 17.75 C 0.422 19.191 0.92 20.436 1.907 21.463 C 2.894 22.49 4.119 23.047 5.573 23.112 C 5.701 23.112 5.767 23.047 5.767 22.927 L 5.767 21.475 C 5.767 21.343 5.701 21.278 5.573 21.278 C 4.64 21.234 3.86 20.862 3.219 20.184 C 2.579 19.508 2.265 18.688 2.265 17.739 C 2.265 16.821 2.569 16.013 3.176 15.346 C 3.783 14.67 4.541 14.298 5.452 14.222 L 6.028 14.133 C 6.146 14.133 6.202 14.08 6.202 13.98 L 6.287 13.381 C 6.418 12.19 6.927 11.195 7.784 10.409 C 8.639 9.623 9.66 9.24 10.852 9.24 C 12.044 9.24 13.074 9.633 13.952 10.419 C 14.843 11.208 15.341 12.19 15.45 13.359 L 15.525 13.991 C 15.547 14.112 15.634 14.177 15.764 14.177 L 17.498 14.177 C 18.464 14.177 19.287 14.528 19.981 15.227 C 20.675 15.925 21.023 16.766 21.023 17.75 C 21.023 18.7 20.708 19.508 20.069 20.197 C 19.428 20.884 18.647 21.234 17.715 21.288 C 17.575 21.288 17.498 21.353 17.498 21.485 L 17.498 22.938 C 17.498 23.059 17.575 23.124 17.715 23.124 C 19.158 23.08 20.371 22.532 21.369 21.497 C 22.356 20.458 22.854 19.212 22.854 17.761 C 22.854 17.018 22.714 16.297 22.442 15.564 C 23.288 14.516 23.699 13.294 23.699 11.906 C 23.699 11.13 23.549 10.398 23.256 9.688 C 22.963 8.979 22.551 8.378 22.042 7.865 C 21.531 7.351 20.924 6.946 20.23 6.641 C 19.536 6.335 18.789 6.182 18.019 6.182 C 16.349 6.182 14.951 6.816 13.834 8.084 C 12.869 7.603 11.871 7.363 10.862 7.363 C 9.334 7.363 7.979 7.843 6.808 8.792 C 5.638 9.743 4.889 10.977 4.552 12.485 C 3.339 12.77 2.342 13.391 1.572 14.374 C 0.802 15.357 0.422 16.483 0.422 17.75 Z M 6.222 25.428 C 6.222 25.614 6.277 25.8 6.396 25.984 C 6.515 26.171 6.689 26.29 6.906 26.367 C 7.155 26.445 7.394 26.432 7.599 26.323 C 7.817 26.225 7.958 26.018 8.034 25.711 L 8.185 25.045 C 8.239 24.795 8.207 24.565 8.076 24.356 C 7.946 24.138 7.762 23.997 7.513 23.92 C 7.264 23.845 7.036 23.877 6.819 24.008 C 6.602 24.138 6.471 24.325 6.406 24.575 L 6.255 25.221 C 6.234 25.286 6.222 25.351 6.222 25.428 Z M 7.057 22.261 C 7.057 22.501 7.144 22.708 7.317 22.883 C 7.491 23.08 7.697 23.167 7.925 23.167 C 8.185 23.167 8.401 23.08 8.575 22.904 C 8.759 22.729 8.846 22.522 8.846 22.261 C 8.846 22.008 8.759 21.79 8.575 21.615 C 8.391 21.441 8.174 21.353 7.925 21.353 C 7.675 21.353 7.469 21.441 7.296 21.605 C 7.123 21.769 7.057 22.008 7.057 22.261 Z M 7.719 19.781 C 7.708 19.956 7.752 20.119 7.859 20.272 C 7.969 20.436 8.142 20.546 8.38 20.621 C 8.607 20.687 8.824 20.665 9.053 20.546 C 9.28 20.425 9.433 20.239 9.508 19.988 L 9.799 19.005 C 9.876 18.744 9.855 18.503 9.724 18.295 C 9.594 18.088 9.399 17.946 9.139 17.87 C 8.902 17.794 8.673 17.815 8.456 17.946 C 8.239 18.066 8.087 18.252 8.011 18.491 L 7.752 19.497 C 7.73 19.672 7.719 19.77 7.719 19.781 Z M 8.966 28.835 C 8.966 29.021 9.019 29.196 9.139 29.37 C 9.259 29.545 9.433 29.666 9.67 29.731 C 9.767 29.753 9.855 29.763 9.931 29.763 C 10.396 29.763 10.689 29.545 10.798 29.098 L 10.939 28.453 C 11.004 28.169 10.971 27.929 10.852 27.71 C 10.733 27.492 10.537 27.362 10.289 27.306 C 10.062 27.231 9.833 27.252 9.605 27.383 C 9.377 27.514 9.236 27.699 9.161 27.939 L 9.009 28.596 C 8.977 28.715 8.966 28.803 8.966 28.835 Z M 9.572 4.326 C 9.572 4.588 9.66 4.806 9.833 4.981 L 10.548 5.681 C 10.7 5.855 10.895 5.942 11.134 5.964 C 11.373 5.985 11.6 5.888 11.806 5.681 C 11.98 5.505 12.067 5.288 12.067 5.035 C 12.067 4.773 11.98 4.554 11.806 4.38 L 11.124 3.67 C 10.96 3.495 10.744 3.408 10.494 3.385 C 10.245 3.385 10.029 3.473 9.844 3.659 C 9.67 3.846 9.572 4.064 9.572 4.326 Z M 9.823 25.669 C 9.823 25.918 9.909 26.127 10.082 26.301 C 10.256 26.476 10.472 26.564 10.711 26.564 C 10.971 26.564 11.177 26.476 11.351 26.311 C 11.524 26.137 11.6 25.93 11.6 25.669 C 11.6 25.417 11.514 25.21 11.351 25.035 C 11.177 24.86 10.971 24.784 10.711 24.784 C 10.452 24.784 10.245 24.87 10.072 25.035 C 9.898 25.198 9.823 25.417 9.823 25.669 Z M 10.494 23.189 C 10.484 23.352 10.527 23.527 10.646 23.701 C 10.754 23.877 10.917 23.985 11.134 24.029 C 11.384 24.094 11.612 24.073 11.828 23.963 C 12.044 23.855 12.186 23.648 12.272 23.352 L 12.555 22.37 C 12.63 22.129 12.609 21.9 12.478 21.681 C 12.349 21.463 12.164 21.322 11.904 21.244 C 11.665 21.167 11.438 21.201 11.21 21.332 C 10.983 21.463 10.842 21.66 10.765 21.911 L 10.527 22.894 C 10.505 22.981 10.494 23.08 10.494 23.189 Z M 13.487 25.537 C 13.487 25.722 13.542 25.897 13.649 26.062 C 13.758 26.225 13.922 26.346 14.149 26.411 C 14.181 26.411 14.234 26.421 14.3 26.432 C 14.365 26.445 14.419 26.455 14.453 26.455 C 14.896 26.455 15.167 26.214 15.276 25.734 L 15.427 25.079 C 15.504 24.849 15.482 24.619 15.351 24.391 C 15.222 24.16 15.037 24.019 14.799 23.942 C 14.528 23.877 14.279 23.898 14.062 24.029 C 13.844 24.16 13.693 24.346 13.617 24.609 L 13.52 25.253 C 13.52 25.263 13.52 25.307 13.509 25.373 C 13.497 25.45 13.487 25.494 13.487 25.537 Z M 14.29 22.304 C 14.29 22.555 14.376 22.763 14.549 22.927 C 14.712 23.102 14.918 23.189 15.178 23.189 C 15.439 23.189 15.645 23.102 15.818 22.938 C 15.991 22.763 16.068 22.555 16.068 22.304 C 16.068 22.042 15.979 21.834 15.818 21.66 C 15.645 21.485 15.439 21.408 15.178 21.408 C 14.918 21.408 14.712 21.497 14.539 21.66 C 14.365 21.824 14.29 22.042 14.29 22.304 Z M 14.951 19.781 C 14.951 19.966 15.004 20.142 15.124 20.306 C 15.244 20.468 15.416 20.59 15.655 20.655 C 15.678 20.655 15.72 20.665 15.785 20.676 C 15.85 20.687 15.904 20.699 15.937 20.699 C 16.056 20.699 16.186 20.665 16.338 20.6 C 16.566 20.48 16.707 20.294 16.773 20.032 L 17.032 19.049 C 17.097 18.798 17.076 18.569 16.956 18.361 C 16.838 18.154 16.652 18.001 16.415 17.924 C 16.164 17.849 15.927 17.87 15.72 17.99 C 15.504 18.11 15.362 18.284 15.286 18.547 L 14.984 19.542 C 14.984 19.563 14.984 19.595 14.971 19.66 C 14.961 19.694 14.951 19.738 14.951 19.781 Z M 15.33 9.165 C 16.046 8.443 16.934 8.084 18.009 8.084 C 19.082 8.084 19.991 8.454 20.74 9.198 C 21.489 9.94 21.868 10.836 21.868 11.906 C 21.868 12.626 21.672 13.315 21.294 13.959 C 20.23 12.889 18.962 12.353 17.498 12.353 L 17.163 12.353 C 16.859 11.153 16.242 10.092 15.33 9.165 Z M 17.119 3.419 C 17.119 3.67 17.206 3.878 17.369 4.052 C 17.531 4.216 17.748 4.305 18.009 4.305 C 18.268 4.305 18.496 4.216 18.679 4.052 C 18.864 3.889 18.952 3.67 18.952 3.419 L 18.952 1.159 C 18.952 0.906 18.854 0.688 18.669 0.503 C 18.485 0.317 18.257 0.23 18.009 0.23 C 17.759 0.23 17.543 0.317 17.38 0.503 C 17.206 0.688 17.129 0.906 17.129 1.159 L 17.129 3.419 L 17.119 3.419 Z M 23.104 5.888 C 23.104 6.16 23.192 6.378 23.354 6.543 C 23.744 6.936 24.178 6.936 24.665 6.543 L 26.216 4.981 C 26.399 4.795 26.486 4.567 26.486 4.293 C 26.486 4.03 26.399 3.812 26.216 3.637 C 26.031 3.451 25.814 3.364 25.565 3.364 C 25.316 3.364 25.1 3.451 24.904 3.626 L 23.354 5.244 C 23.192 5.406 23.104 5.614 23.104 5.888 Z M 23.95 18.831 C 23.95 19.081 24.047 19.3 24.242 19.476 L 24.904 20.163 C 25.122 20.338 25.338 20.425 25.565 20.425 C 25.781 20.425 25.999 20.338 26.216 20.163 C 26.399 19.988 26.486 19.781 26.486 19.519 C 26.486 19.267 26.399 19.049 26.216 18.841 L 25.512 18.176 C 25.349 17.99 25.142 17.902 24.893 17.902 C 24.644 17.902 24.427 17.99 24.242 18.176 C 24.047 18.361 23.95 18.58 23.95 18.831 Z M 25.554 11.906 C 25.554 12.168 25.653 12.375 25.836 12.551 C 26.031 12.747 26.26 12.845 26.509 12.845 L 28.709 12.845 C 28.959 12.845 29.176 12.757 29.35 12.573 C 29.523 12.387 29.609 12.168 29.609 11.906 C 29.609 11.643 29.523 11.425 29.35 11.25 C 29.176 11.064 28.97 10.977 28.709 10.977 L 26.509 10.977 C 26.249 10.977 26.031 11.064 25.836 11.25 C 25.641 11.436 25.554 11.654 25.554 11.906 Z" style="" transform="matrix(1, 0, 0, 1, -3.552713678800501e-15, 3.552713678800501e-15)"/>
</svg>