<svg xmlns="http://www.w3.org/2000/svg" xmlns:xlink="http://www.w3.org/1999/xlink" width="32" height="32"
  viewBox="0 0 32 32">
  <path
    d="M23.214,12.071H15.179V4.036A1.786,1.786,0,0,0,13.393,2.25H11.607A1.786,1.786,0,0,0,9.821,4.036v8.036H1.786A1.786,1.786,0,0,0,0,13.857v1.786a1.786,1.786,0,0,0,1.786,1.786H9.821v8.036a1.786,1.786,0,0,0,1.786,1.786h1.786a1.786,1.786,0,0,0,1.786-1.786V17.429h8.036A1.786,1.786,0,0,0,25,15.643V13.857A1.786,1.786,0,0,0,23.214,12.071Z"
    transform="translate(4 1.75)" />
</svg>